<?xml version="1.0" encoding="UTF-8"?>
<svg id="Layer_1" data-name="Layer 1" xmlns="http://www.w3.org/2000/svg" viewBox="0 0 800 419.01">
  <defs>
    <style>
      .cls-1 {
        fill: #3ba1df;
      }

      .cls-1, .cls-2 {
        stroke-width: 0px;
      }

      .cls-2 {
        fill: #fff;
      }
    </style>
  </defs>
  <path class="cls-1" d="m590.5,0H209.5C93.98,0,0,93.98,0,209.5s93.98,209.5,209.5,209.5h380.99c115.52,0,209.5-93.98,209.5-209.5S706.02,0,590.5,0Z"/>
  <g>
    <path class="cls-2" d="m590.5,373.27h-157.01l48.76-48.76h108.25c63.41,0,115.01-51.59,115.01-115s-51.59-115.01-115.01-115.01h-154.83l-69.71,69.71h-141.87c-24.98,0-45.31,20.33-45.31,45.32s20.33,45.31,45.31,45.31h96.93c5.77,0,10.47-4.69,10.47-10.47s-4.7-10.47-10.47-10.47h-98.12v-48.76h98.12c32.66,0,59.23,26.57,59.23,59.23s-26.57,59.23-59.23,59.23h-96.93c-51.87,0-94.07-42.2-94.07-94.07s42.2-94.08,94.07-94.08h121.68l69.71-69.71h175.03c90.3,0,163.77,73.46,163.77,163.77s-73.46,163.76-163.77,163.76Z"/>
    <path class="cls-2" d="m390.66,373.27h-181.16c-90.3,0-163.77-73.46-163.77-163.76S119.2,45.74,209.5,45.74h163.14l-48.76,48.76h-114.38c-63.41,0-115.01,51.59-115.01,115.01s51.59,115,115.01,115h160.98l55.44-55.4V115.45h175.55c32.65,0,59.22,26.57,59.22,59.22s-26.56,59.22-59.22,59.22h-126.79v55.44l-84.01,83.95Zm84.01-188.14h126.79c5.76,0,10.45-4.69,10.45-10.45s-4.69-10.46-10.45-10.46h-126.79v20.91Z"/>
  </g>
</svg>